<?xml version="1.0" encoding="UTF-8"?>
<svg version="1.1" xmlns="http://www.w3.org/2000/svg" width="500" height="500">
<path d="M0 0 C2.83028709 -0.29152112 5.44146825 -0.38856216 8.2734375 -0.35644531 C9.12883118 -0.35848969 9.98422485 -0.36053406 10.86553955 -0.36264038 C13.70224152 -0.36565646 16.53836681 -0.34714658 19.375 -0.328125 C21.34033057 -0.3250687 23.30566329 -0.3231916 25.27099609 -0.32244873 C29.39363876 -0.31784045 33.51608665 -0.30339456 37.63867188 -0.28125 C42.93182162 -0.25296724 48.22481777 -0.24203909 53.51803589 -0.2375679 C57.57740832 -0.23341712 61.63674946 -0.2236025 65.69610596 -0.21169281 C67.64821114 -0.20598237 69.60031936 -0.20122624 71.5524292 -0.19742584 C74.27719442 -0.19057476 77.00183643 -0.17694776 79.7265625 -0.16113281 C80.53909485 -0.16001495 81.3516272 -0.15889709 82.18878174 -0.15774536 C87.77061731 -0.11469134 87.77061731 -0.11469134 90 1 C90.33 66.67 90.66 132.34 91 200 C116.08 200 141.16 200 167 200 C171 204 171 204 171.44978333 207.39750671 C171.44669377 208.76740623 171.42127149 210.1373669 171.37817383 211.5065918 C171.36682907 212.63159592 171.36682907 212.63159592 171.35525513 213.77932739 C171.32533079 216.25334139 171.26652616 218.72575344 171.20703125 221.19921875 C171.1796633 222.91744007 171.15394422 224.63568839 171.12980652 226.35395813 C171.07523575 229.95123538 171.00760065 233.54793427 170.92944336 237.14477539 C170.82911578 241.7651459 170.7506469 246.38553893 170.6805315 251.00645733 C170.61309729 255.40417205 170.53578703 259.80169432 170.45703125 264.19921875 C170.44256266 265.04310339 170.42809406 265.88698803 170.41318703 266.75644493 C170.37048038 269.13164217 170.32085882 271.50658343 170.26879883 273.8815918 C170.25675919 274.59171921 170.24471954 275.30184662 170.23231506 276.03349304 C170.11492836 280.88507164 170.11492836 280.88507164 169 282 C166.56700213 282.12492389 164.16095077 282.18601507 161.72631836 282.20532227 C160.96539383 282.21522186 160.2044693 282.22512146 159.42048645 282.23532104 C156.8936377 282.26702624 154.36677012 282.2917289 151.83984375 282.31640625 C150.09248859 282.33696801 148.34513849 282.35796426 146.59779358 282.37937927 C141.98973682 282.43468041 137.38163459 282.48405408 132.77349854 282.53222656 C128.07486911 282.58238303 123.37630606 282.63809958 118.67773438 282.69335938 C109.45187956 282.80103924 100.22596722 282.90246223 91 283 C90.99668985 284.01859541 90.99337971 285.03719082 90.98996925 286.08665276 C90.90907594 310.8392713 90.81679163 335.59182723 90.71247292 360.34435844 C90.66229114 372.3143574 90.61584897 384.2843493 90.578125 396.25439453 C90.54524617 406.68406666 90.50543793 417.11368502 90.45720994 427.54329789 C90.43190397 433.06877874 90.41013491 438.59422374 90.39665604 444.11974716 C90.38387274 449.31532774 90.3618591 454.5107856 90.33261681 459.70629883 C90.32351171 461.61793826 90.31784402 463.52959747 90.31578636 465.44125748 C90.31248442 468.04186124 90.29706382 470.64211264 90.2784729 473.24264526 C90.28040763 474.00722734 90.28234237 474.77180942 90.28433573 475.55956066 C90.22824242 480.77175758 90.22824242 480.77175758 88 483 C85.20948909 483.19863343 82.51820952 483.27269851 79.7265625 483.25878906 C78.87116882 483.2622937 78.01577515 483.26579834 77.13446045 483.26940918 C74.29789186 483.27823477 71.46157127 483.27237445 68.625 483.265625 C66.65966748 483.26697141 64.69433528 483.26891174 62.72900391 483.27142334 C58.60641311 483.27437572 54.48390887 483.27007328 50.36132812 483.26074219 C45.0681367 483.2493476 39.77514809 483.25590646 34.48196411 483.26788712 C30.42259178 483.27510263 26.3632678 483.27281921 22.30389404 483.26763153 C20.35178605 483.26629418 18.39967372 483.26794573 16.4475708 483.27259064 C13.72274085 483.2776508 10.99824264 483.26995288 8.2734375 483.25878906 C7.46090515 483.26283752 6.6483728 483.26688599 5.81121826 483.27105713 C0.22852813 483.22852813 0.22852813 483.22852813 -2 481 C-2.19713201 478.39732514 -2.26770857 475.90106462 -2.25168228 473.29718113 C-2.25458916 472.48872961 -2.25749604 471.68027809 -2.26049101 470.84732804 C-2.26785228 468.10912829 -2.26081935 465.37114835 -2.25396729 462.63294983 C-2.2562693 460.66170605 -2.25944408 458.69046312 -2.26342177 456.71922201 C-2.27181408 451.27955716 -2.26762448 445.83996199 -2.26144934 440.40029681 C-2.25694386 434.54268256 -2.26389912 428.6850807 -2.26940918 422.82746887 C-2.27832544 411.34310629 -2.27637121 399.85876979 -2.2705839 388.37440617 C-2.2660053 379.04428981 -2.2653977 369.71417943 -2.26763153 360.38406181 C-2.2677843 359.72196091 -2.26793707 359.05986 -2.26809447 358.37769543 C-2.26871711 355.69023096 -2.26935391 353.00276649 -2.270014 350.31530203 C-2.27613693 325.08617234 -2.27057739 299.85705689 -2.2598202 274.62792939 C-2.25032955 252.19864126 -2.25117676 229.76937583 -2.26074219 207.34008789 C-2.27144493 182.15961417 -2.27570166 156.97915306 -2.26951766 131.79867738 C-2.2688762 129.11570291 -2.26825052 126.43272843 -2.26763153 123.74975395 C-2.26747338 123.08910329 -2.26731522 122.42845263 -2.26715227 121.74778226 C-2.26487452 111.75842041 -2.26755543 101.7690709 -2.27259064 91.77971077 C-2.27818852 80.42390274 -2.27670616 69.06812238 -2.26602915 57.71231753 C-2.26075751 51.91357848 -2.25874095 46.11488561 -2.26532745 40.31614685 C-2.27125836 35.01457559 -2.2680594 29.71309363 -2.25737235 24.41153055 C-2.2551261 22.4869207 -2.25630177 20.56230341 -2.26112393 18.6376983 C-2.26714909 16.03457616 -2.26102525 13.4317655 -2.25168228 10.82866001 C-2.25636461 10.07023563 -2.26104695 9.31181124 -2.26587117 8.5304043 C-2.23886229 4.80085022 -2.12481619 3.18722429 0 0 Z " fill="#621EE9" transform="translate(71,9)"/>
<path d="M0 0 C0.84564011 -0.00335861 1.69128021 -0.00671722 2.56254578 -0.01017761 C5.36658178 -0.01970106 8.17055819 -0.02163131 10.97460938 -0.02270508 C12.91752141 -0.02591627 14.86043321 -0.02928023 16.80334473 -0.03279114 C20.87883058 -0.0387856 24.95429521 -0.04063067 29.02978516 -0.04003906 C34.26242816 -0.03993733 39.49493581 -0.05360004 44.72754669 -0.07081127 C48.74058665 -0.0819062 52.75359361 -0.08395906 56.76664734 -0.08342934 C58.69643115 -0.08461284 60.62621571 -0.08905522 62.5559845 -0.0967617 C65.24966032 -0.10651282 67.94303856 -0.10370319 70.63671875 -0.09765625 C71.43990036 -0.10327576 72.24308197 -0.10889526 73.07060242 -0.11468506 C78.59004274 -0.08305296 78.59004274 -0.08305296 80.81835938 2.14526367 C81.0095927 4.76049002 81.07411913 7.26897958 81.05163097 9.88490391 C81.05254989 10.69733137 81.0534688 11.50975883 81.05441555 12.3468053 C81.05504209 15.09853382 81.04124456 17.85000746 81.02763367 20.60169983 C81.02509372 22.58261651 81.02343111 24.56353448 81.02257568 26.54445261 C81.01763544 32.0108038 81.00010683 37.47705492 80.98060668 42.94337094 C80.96176678 48.82955962 80.95442705 54.71576373 80.94567871 60.60197449 C80.92778308 71.4740087 80.90083319 82.34599768 80.86941566 93.21800062 C80.84045683 103.25980788 80.81562337 113.30161533 80.79487038 123.34344292 C80.79349168 124.00860677 80.79211297 124.67377062 80.79069249 125.35909095 C80.78510635 128.05895173 80.77954501 130.75881256 80.77401746 133.45867346 C80.72210372 158.80298856 80.65930806 184.14726599 80.59107578 209.49154188 C80.53045265 232.02820252 80.47722364 254.56486794 80.4309082 277.1015625 C80.42793144 278.54870091 80.42495464 279.99583932 80.42197778 281.44297773 C80.42050654 282.15840199 80.41903529 282.87382624 80.41751946 283.61093002 C80.41011243 287.21197706 80.40269529 290.81302409 80.39526653 294.41407108 C80.3930701 295.47962516 80.3930701 295.47962516 80.3908293 296.56670559 C80.35197873 315.37671162 80.30823588 334.18670613 80.2628215 352.99669737 C80.26040014 353.99983812 80.26040014 353.99983812 80.25792987 355.02324433 C80.25143561 357.71271733 80.24494115 360.40219032 80.23842074 363.09166324 C80.21571991 372.46387926 80.19467186 381.83609768 80.17468246 391.20831984 C80.1489018 403.2829891 80.11963434 415.35764197 80.08471736 427.43228848 C80.06793861 433.25911571 80.05276324 439.0859355 80.04185677 444.91277695 C80.03183441 450.23766835 80.01725719 455.5625263 79.99890063 460.88739531 C79.99304216 462.82273308 79.98889614 464.75807687 79.98655494 466.69342209 C79.98314212 469.30614152 79.97369831 471.91876819 79.9626112 474.53146458 C79.96306217 475.29835168 79.96351314 476.06523878 79.96397778 476.85536489 C79.9325143 482.03110874 79.9325143 482.03110874 78.81835938 483.14526367 C76.08485189 483.24574891 73.37658045 483.28142629 70.64257812 483.2746582 C69.35729721 483.27728668 69.35729721 483.27728668 68.04605103 483.27996826 C65.19930018 483.28438784 62.35261091 483.28144842 59.50585938 483.27807617 C57.53670235 483.27874918 55.56754541 483.27971918 53.59838867 483.28097534 C49.46564953 483.28245246 45.33293196 483.28029732 41.20019531 483.27563477 C35.89011417 483.26993747 30.58008356 483.2732164 25.27000427 483.27920723 C21.20210384 483.28281247 17.13421548 483.28167443 13.0663147 483.27907944 C11.1077982 483.27841007 9.14928062 483.27923894 7.19076538 483.28155899 C4.45852738 483.28408491 1.72637241 483.28024579 -1.00585938 483.2746582 C-1.82355804 483.27668243 -2.64125671 483.27870667 -3.48373413 483.28079224 C-9.06737817 483.25952613 -9.06737817 483.25952613 -10.18164062 482.14526367 C-10.29179492 479.59107066 -10.33660266 477.06333432 -10.33985901 474.50816345 C-10.34726597 473.29406676 -10.34726597 473.29406676 -10.35482258 472.05544287 C-10.37027531 469.32228311 -10.37857911 466.58914697 -10.38696289 463.85595703 C-10.39653532 461.90509328 -10.40654501 459.95423162 -10.41696167 458.00337219 C-10.44408571 452.68956468 -10.46505453 447.37574822 -10.48496366 442.06190944 C-10.50677712 436.51517894 -10.53418843 430.96847627 -10.5610199 425.42176819 C-10.61100972 414.91035759 -10.65592513 404.3989316 -10.69904226 393.88749081 C-10.748361 381.92395257 -10.80329896 369.96044223 -10.85872185 357.99693096 C-10.97263842 333.37973454 -11.07945628 308.76251138 -11.18164062 284.14526367 C-14.13461991 282.66877403 -17.11794855 283.02373848 -20.35351562 283.04760742 C-21.46104187 283.04979782 -21.46104187 283.04979782 -22.59094238 283.05203247 C-24.19625515 283.05584196 -25.80156369 283.06196218 -27.40686035 283.07009888 C-29.94475138 283.08282944 -32.48259033 283.08936953 -35.02050781 283.09423828 C-40.40757539 283.10568443 -45.79460023 283.12492709 -51.18164062 283.14526367 C-57.42240085 283.16882312 -63.66313651 283.18923004 -69.90393066 283.20120239 C-72.40896868 283.20770482 -74.91393212 283.22021311 -77.41894531 283.23291016 C-78.94921808 283.23654157 -80.47949154 283.23989344 -82.00976562 283.24291992 C-82.71008911 283.24808624 -83.4104126 283.25325256 -84.13195801 283.25857544 C-88.9539537 283.25910713 -88.9539537 283.25910713 -91.18164062 282.14526367 C-91.2279138 271.74911954 -91.26348422 261.35299977 -91.28526497 250.95677376 C-91.29571688 246.12975562 -91.30990167 241.30280776 -91.33251953 236.47583008 C-91.35419784 231.82040589 -91.36619864 227.16504945 -91.37139511 222.5095787 C-91.3750999 220.73050749 -91.38233411 218.95144011 -91.39310074 217.17239761 C-91.40754917 214.68687074 -91.40962138 212.20162634 -91.40869141 209.71606445 C-91.41588196 208.97519592 -91.42307251 208.23432739 -91.43048096 207.4710083 C-91.40974495 202.37336799 -91.40974495 202.37336799 -89.18164062 200.14526367 C-63.44164062 200.14526367 -37.70164062 200.14526367 -11.18164062 200.14526367 C-10.85164063 134.47526367 -10.52164063 68.80526367 -10.18164062 1.14526367 C-6.98350786 -0.45380271 -3.51276466 -0.00198204 0 0 Z " fill="#FDDD5C" transform="translate(350.181640625,8.854736328125)"/>
<path d="M0 0 C0.9384375 -0.02191406 1.876875 -0.04382813 2.84375 -0.06640625 C5.5 0.5625 5.5 0.5625 7.8125 2.34375 C10.42157338 7.32031588 10.07888659 12.09307778 10 17.625 C10.01546875 18.71361328 10.0309375 19.80222656 10.046875 20.92382812 C10.04171875 21.97119141 10.0365625 23.01855469 10.03125 24.09765625 C10.02673828 25.050354 10.02222656 26.00305176 10.01757812 26.98461914 C9.35213087 30.29898591 8.12748571 31.49657555 5.5 33.5625 C2.58984375 34.05859375 2.58984375 34.05859375 -0.5625 34 C-1.60535156 33.99871094 -2.64820313 33.99742187 -3.72265625 33.99609375 C-6.91753428 33.49731532 -7.61546079 33.12144862 -9.5 30.5625 C-10.1495064 26.28046716 -9.96312334 21.95068556 -9.9375 17.625 C-9.95748047 16.43197266 -9.97746094 15.23894531 -9.99804688 14.00976562 C-9.99740234 12.86314453 -9.99675781 11.71652344 -9.99609375 10.53515625 C-9.99794678 9.48593994 -9.9997998 8.43672363 -10.00170898 7.35571289 C-8.9774024 1.65299192 -5.4380462 -0.00746984 0 0 Z " fill="#F6D360" transform="translate(216.5,234.4375)"/>
<path d="M0 0 C13 0 13 0 17 2 C18.55608229 5.11216459 18.14322832 8.4007658 18.125 11.8125 C18.13080078 12.88081055 18.13080078 12.88081055 18.13671875 13.97070312 C18.12964386 17.79467989 17.76830119 21.26825135 17 25 C17.08364845 27.21815246 17.08364845 27.21815246 17.4375 29.3125 C17.623125 30.529375 17.80875 31.74625 18 33 C16.02 33 14.04 33 12 33 C10.68373308 29.38026598 10 26.90432869 10 23 C8.68 23 7.36 23 6 23 C6 26.3 6 29.6 6 33 C4.02 33 2.04 33 0 33 C0 22.11 0 11.22 0 0 Z " fill="#6620E3" transform="translate(348,234)"/>
<path d="M0 0 C1.134375 0.020625 2.26875 0.04125 3.4375 0.0625 C5.99955076 6.39625011 7.65702266 12.70922979 9.125 19.375 C9.34994141 20.36306641 9.57488281 21.35113281 9.80664062 22.36914062 C11.4375 29.65100209 11.4375 29.65100209 11.4375 33.0625 C9.4575 33.0625 7.4775 33.0625 5.4375 33.0625 C5.1075 31.0825 4.7775 29.1025 4.4375 27.0625 C1.4675 27.3925 -1.5025 27.7225 -4.5625 28.0625 C-5.5525 30.5375 -5.5525 30.5375 -6.5625 33.0625 C-8.2125 33.0625 -9.8625 33.0625 -11.5625 33.0625 C-10.95858479 25.81551743 -9.44737065 19.07741952 -7.5625 12.0625 C-7.15257812 10.49048828 -7.15257812 10.49048828 -6.734375 8.88671875 C-4.40346598 0.07725379 -4.40346598 0.07725379 0 0 Z " fill="#6722E2" transform="translate(284.5625,233.9375)"/>
<path d="M0 0 C0.74886475 0.00523682 1.49772949 0.01047363 2.26928711 0.01586914 C3.07817383 0.0190918 3.88706055 0.02231445 4.72045898 0.02563477 C5.5705957 0.03401367 6.42073242 0.04239258 7.29663086 0.05102539 C8.15063477 0.05553711 9.00463867 0.06004883 9.88452148 0.06469727 C12.00108749 0.07652166 14.11761771 0.0944577 16.23413086 0.11352539 C16.23413086 2.42352539 16.23413086 4.73352539 16.23413086 7.11352539 C12.27413086 7.11352539 8.31413086 7.11352539 4.23413086 7.11352539 C4.23413086 9.42352539 4.23413086 11.73352539 4.23413086 14.11352539 C7.20413086 14.11352539 10.17413086 14.11352539 13.23413086 14.11352539 C13.23413086 16.09352539 13.23413086 18.07352539 13.23413086 20.11352539 C10.26413086 20.11352539 7.29413086 20.11352539 4.23413086 20.11352539 C4.23413086 22.42352539 4.23413086 24.73352539 4.23413086 27.11352539 C8.19413086 27.11352539 12.15413086 27.11352539 16.23413086 27.11352539 C16.23413086 29.09352539 16.23413086 31.07352539 16.23413086 33.11352539 C9.96413086 33.11352539 3.69413086 33.11352539 -2.76586914 33.11352539 C-2.78878075 28.57448173 -2.80870695 24.03563737 -2.82080078 19.49658203 C-2.82584054 17.95132773 -2.83267234 16.40607823 -2.84130859 14.86083984 C-2.8533899 12.6442751 -2.85910087 10.42777321 -2.86352539 8.21118164 C-2.86868668 7.51638199 -2.87384796 6.82158234 -2.87916565 6.10572815 C-2.87936191 4.44123209 -2.82776043 2.7768704 -2.76586914 1.11352539 C-1.76586914 0.11352539 -1.76586914 0.11352539 0 0 Z " fill="#6823E1" transform="translate(326.765869140625,233.886474609375)"/>
<path d="M0 0 C1.98 0 3.96 0 6 0 C7.65 5.94 9.3 11.88 11 18 C11.45375 16.329375 11.9075 14.65875 12.375 12.9375 C13.55314254 8.61578281 14.75679416 4.30340483 16 0 C17.65 0 19.3 0 21 0 C22.18415538 3.55246614 21.73317541 4.98754318 20.85546875 8.5859375 C20.59056641 9.68164062 20.32566406 10.77734375 20.05273438 11.90625 C19.76720703 13.0509375 19.48167969 14.195625 19.1875 15.375 C18.91357422 16.51195312 18.63964844 17.64890625 18.35742188 18.8203125 C17.16346743 23.69920548 15.96190348 28.36585782 14 33 C12.02 33 10.04 33 8 33 C1.24947487 10.40510967 1.24947487 10.40510967 0 0 Z " fill="#6823E1" transform="translate(299,234)"/>
<path d="M0 0 C2.5 0.125 2.5 0.125 3.5 1.125 C3.59860131 2.52848735 3.63078937 3.93680477 3.6328125 5.34375 C3.63410156 6.19324219 3.63539063 7.04273438 3.63671875 7.91796875 C3.63285156 8.81128906 3.62898437 9.70460937 3.625 10.625 C3.62886719 11.51832031 3.63273438 12.41164062 3.63671875 13.33203125 C3.63542969 14.18152344 3.63414062 15.03101563 3.6328125 15.90625 C3.63168457 16.69064453 3.63055664 17.47503906 3.62939453 18.28320312 C3.5 20.125 3.5 20.125 2.5 21.125 C0 21.25 0 21.25 -2.5 21.125 C-4.05606751 19.56893249 -3.62970769 18.06542629 -3.6328125 15.90625 C-3.63410156 15.05675781 -3.63539063 14.20726562 -3.63671875 13.33203125 C-3.63285156 12.43871094 -3.62898437 11.54539063 -3.625 10.625 C-3.62886719 9.73167969 -3.63273438 8.83835938 -3.63671875 7.91796875 C-3.63542969 7.06847656 -3.63414062 6.21898437 -3.6328125 5.34375 C-3.63168457 4.55935547 -3.63055664 3.77496094 -3.62939453 2.96679688 C-3.42562955 0.06641384 -2.91395956 0.14569798 0 0 Z " fill="#6B27DF" transform="translate(216.5,240.875)"/>
<path d="M0 0 C1.98 0 3.96 0 6 0 C6 3.3 6 6.6 6 10 C4.02 10 2.04 10 0 10 C0 6.7 0 3.4 0 0 Z " fill="#FDDC5A" transform="translate(354,241)"/>
<path d="M0 0 C2.02350324 3.03525486 2.32124018 4.19426202 2.625 7.6875 C2.69976562 8.49574219 2.77453125 9.30398437 2.8515625 10.13671875 C2.92503906 11.05904297 2.92503906 11.05904297 3 12 C1.35 12 -0.3 12 -2 12 C-1 3.42857143 -1 3.42857143 0 0 Z " fill="#F1CC65" transform="translate(284,243)"/>
</svg>
